<svg height="450pt" viewBox="0 -36 450.001 450" width="450pt" xmlns="http://www.w3.org/2000/svg" xmlns:xlink="http://www.w3.org/1999/xlink"><linearGradient id="a" gradientUnits="userSpaceOnUse" x1="171.1201" x2="270.8799" y1="258.9956" y2="258.9956"><stop offset="0" stop-color="#f0aa56"/><stop offset="1" stop-color="#f9bf8a"/></linearGradient><linearGradient id="b" gradientUnits="userSpaceOnUse" x1="171.1201" x2="261.7676" y1="253.0669" y2="253.0669"><stop offset="0" stop-color="#f9bf8a"/><stop offset="1" stop-color="#f0aa56"/></linearGradient><linearGradient id="c"><stop offset="0" stop-color="#6a64fa"/><stop offset="1" stop-color="#7daef5"/></linearGradient><linearGradient id="d" gradientUnits="userSpaceOnUse" x1="107" x2="335" xlink:href="#c" y1="259.0005" y2="259.0005"/><linearGradient id="e" gradientUnits="userSpaceOnUse" x1="206.0269" x2="281.8799" xlink:href="#c" y1="265.1401" y2="265.1401"/><linearGradient id="f" gradientUnits="userSpaceOnUse" x1="132.8301" x2="162.1699" xlink:href="#c" y1="311.4771" y2="311.4771"/><linearGradient id="g" gradientUnits="userSpaceOnUse" x1="174.5645" x2="232.4033" xlink:href="#c" y1="169.5454" y2="169.5454"/><linearGradient id="h" gradientUnits="userSpaceOnUse" x1="107" x2="162.77" xlink:href="#c" y1="220.5366" y2="220.5366"/><linearGradient id="i" gradientUnits="userSpaceOnUse" x1="5" x2="445" y1="150.0005" y2="150.0005"><stop offset="0" stop-color="#a9e1ff"/><stop offset="1" stop-color="#1593ff"/></linearGradient><linearGradient id="j" gradientUnits="userSpaceOnUse" x1="5" x2="348.6152" y1="136.648" y2="136.648"><stop offset="0" stop-color="#1593ff"/><stop offset="1" stop-color="#a9e1ff"/></linearGradient><path d="m221 209.121094c27.539062 0 49.878906 22.328125 49.878906 49.878906 0 27.539062-22.339844 49.871094-49.878906 49.871094-27.550781 0-49.878906-22.332032-49.878906-49.871094 0-27.550781 22.328125-49.878906 49.878906-49.878906zm24 49.878906c0-13.257812-10.75-24-24-24s-24 10.742188-24 24c0 13.25 10.75 24 24 24s24-10.75 24-24zm0 0" fill="url(#a)"/><path d="m179.621094 268.300781c0-27.550781 22.328125-49.878906 49.878906-49.878906 12.308594 0 23.566406 4.46875 32.269531 11.859375-9.03125-12.796875-23.921875-21.160156-40.769531-21.160156-27.550781 0-49.878906 22.328125-49.878906 49.878906 0 15.234375 6.839844 28.863281 17.605468 38.011719-5.730468-8.121094-9.105468-18.019531-9.105468-28.710938zm0 0" fill="url(#b)"/><path d="m291.359375 209.691406c7.332031 10.359375 12.410156 22.417969 14.53125 35.476563l29.109375 4.160156v20.363281l-29.28125 4.179688c-1.300781 7.417968-3.558594 14.5-6.648438 21.128906-2.320312 5-5.121093 9.75-8.332031 14.167969l17.710938 23.601562-14.398438 14.398438-23.851562-17.886719c-10.339844 7.179688-22.339844 12.136719-35.308594 14.167969l-4.21875 29.550781h-20.363281l-4.269532-29.898438c-12.75-2.328124-24.507812-7.488281-34.609374-14.800781l-24.199219 18.148438-14.402344-14.398438 18.34375-24.4375c-2.75-3.972656-5.171875-8.191406-7.222656-12.613281-3.210938-6.886719-5.519531-14.277344-6.800781-22.019531l-30.148438-4.308594v-20.359375l30.328125-4.332031c2.242187-12.667969 7.273437-24.378907 14.441406-34.457031l-18.21875-24.292969 14.398438-14.398438 24.339843 18.257813c10.179688-7.1875 22-12.199219 34.789063-14.367188l4.25-29.722656h20.363281l4.238282 29.722656c12.9375 2.1875 24.878906 7.289063 35.140624 14.609375l23.699219-17.78125 14.398438 14.402344zm-20.480469 49.308594c0-27.550781-22.339844-49.878906-49.878906-49.878906-27.550781 0-49.878906 22.328125-49.878906 49.878906 0 27.539062 22.328125 49.871094 49.878906 49.871094 27.539062 0 49.878906-22.332032 49.878906-49.871094zm0 0" fill="url(#d)"/><path d="m246.96875 216.410156c14.335938 8.761719 23.910156 24.554688 23.910156 42.589844 0 27.539062-22.339844 49.871094-49.878906 49.871094-5.21875 0-10.246094-.804688-14.972656-2.289063 7.566406 4.621094 16.457031 7.289063 25.972656 7.289063 27.539062 0 49.878906-22.332032 49.878906-49.871094 0-22.332031-14.683594-41.234375-34.910156-47.589844zm0 0" fill="url(#e)"/><path d="m143.828125 337.050781 18.34375-24.4375c-2.75-3.972656-5.171875-8.191406-7.222656-12.613281-3.210938-6.886719-5.519531-14.277344-6.800781-22.019531l-10.332032-1.476563c1.347656 6.460938 3.414063 12.660156 6.132813 18.496094 2.050781 4.421875 4.472656 8.640625 7.222656 12.609375l-18.34375 24.441406 14.402344 14.398438 3.425781-2.570313zm0 0" fill="url(#f)"/><path d="m183.289062 194.089844c10.179688-7.1875 22-12.199219 34.789063-14.371094l4.25-29.71875h10.074219l-.710938-5h-20.363281l-4.25 29.71875c-11.847656 2.011719-22.863281 6.464844-32.515625 12.824219zm0 0" fill="url(#g)"/><path d="m118 253.3125 30.328125-4.332031c2.242187-12.667969 7.273437-24.378907 14.441406-34.457031l-18.21875-24.292969 12.542969-12.539063-9.144531-6.859375-14.398438 14.398438 18.21875 24.292969c-7.167969 10.078124-12.199219 21.789062-14.441406 34.457031l-30.328125 4.332031v20.359375l11 1.570313zm0 0" fill="url(#h)"/><path d="m137.148438 272.980469c1.28125 7.738281 3.589843 15.128906 6.800781 22.019531h-78.949219c-35.539062-10.058594-60-47.277344-60-86.179688 0-41.101562 29.089844-75.378906 67.738281-83.230468-.019531-.558594-.046875-1.128906-.046875-1.6875 0-37.53125 30.308594-67.949219 67.6875-67.949219 9.769532 0 19.042969 2.097656 27.421875 5.828125 16.589844-33.640625 51.121094-56.78125 91.050781-56.78125 56.070313 0 101.527344 45.628906 101.527344 101.910156 0 5.800782-.5 11.480469-1.429687 17.019532.480469-.007813.949219-.027344 1.429687-.027344 46.742188 0 84.621094 38.019531 84.621094 84.917968 0 45.992188-34.53125 84.730469-80 86.179688h-65.929688c3.089844-6.628906 5.351563-13.707031 6.648438-21.128906l29.28125-4.179688v-20.359375l-29.109375-4.160156c-2.121094-13.058594-7.199219-25.121094-14.53125-35.480469l17.8125-23.738281-14.402344-14.402344-23.699219 17.78125c-10.261718-7.320312-22.199218-12.417969-35.140624-14.609375l-4.238282-29.722656h-20.363281l-4.25 29.71875c-12.789063 2.171875-24.609375 7.183594-34.789063 14.371094l-24.339843-18.257813-14.398438 14.398438 18.21875 24.289062c-7.167969 10.082031-12.199219 21.789063-14.441406 34.460938l-30.328125 4.328125v20.359375zm0 0" fill="url(#i)"/><path d="m15 224.230469c0-41.101563 29.089844-75.382813 67.738281-83.230469-.019531-.558594-.046875-1.128906-.046875-1.691406 0-37.527344 30.308594-67.949219 67.6875-67.949219 9.769532 0 19.042969 2.101563 27.421875 5.832031 16.589844-33.640625 51.121094-56.78125 91.050781-56.78125 32.351563 0 61.171876 15.195313 79.765626 38.859375-17.042969-32.277343-50.84375-54.269531-89.765626-54.269531-39.929687 0-74.460937 23.140625-91.050781 56.78125-8.378906-3.730469-17.652343-5.832031-27.421875-5.832031-37.378906 0-67.6875 30.421875-67.6875 67.953125 0 .558594.027344 1.128906.046875 1.6875-38.648437 7.851562-67.738281 42.128906-67.738281 83.230468 0 21.863282 7.726562 43.195313 20.804688 59.476563-6.914063-13.351563-10.804688-28.570313-10.804688-44.066406zm0 0" fill="url(#j)"/><g fill="#0f0038"><path d="m221 235c13.25 0 24 10.742188 24 24 0 13.25-10.75 24-24 24s-24-10.75-24-24c0-13.257812 10.75-24 24-24zm0 0"/><path d="m365 300h-65.929688c-2.761718 0-5-2.238281-5-5s2.238282-5 5-5h65.847657c42.109375-1.382812 75.082031-37.027344 75.082031-81.179688 0-44.066406-35.71875-79.917968-79.621094-79.917968-.269531 0-.535156.007812-.800781.015625l-.527344.011719c-1.527343.035156-2.910156-.605469-3.886719-1.730469-.972656-1.125-1.390624-2.628907-1.144531-4.097657.902344-5.378906 1.359375-10.824218 1.359375-16.191406 0-53.4375-43.304687-96.910156-96.527344-96.910156-36.972656 0-70.144531 20.691406-86.566406 53.992188-1.1875 2.410156-4.066406 3.449218-6.519531 2.355468-8.046875-3.582031-16.585937-5.394531-25.386719-5.394531-34.566406 0-62.6875 28.238281-62.6875 62.949219 0 .351562.015625.714844.027344 1.070312l.019531.4375c.085938 2.445313-1.605469 4.59375-4.003906 5.082032-36.929687 7.5-63.734375 40.441406-63.734375 78.328124 0 37.648438 23.386719 71.667969 55.707031 81.179688h78.242188c2.761719 0 5 2.238281 5 5s-2.238281 5-5 5h-78.949219c-.460938 0-.917969-.0625-1.363281-.1875-36.871094-10.4375-63.636719-48.707031-63.636719-90.992188 0-41.234374 28.242188-77.269531 67.726562-87.214843 1.210938-39.167969 33.339844-70.65625 72.652344-70.65625 8.632813 0 17.050782 1.507812 25.089844 4.484375 8.664062-15.800782 21.179688-29.179688 36.417969-38.878906 17.019531-10.828126 36.71875-16.554688 56.964843-16.554688 58.738282 0 106.527344 47.960938 106.527344 106.910156 0 4.007813-.230468 8.054688-.6875 12.09375 47.421875 2.261719 85.308594 41.683594 85.308594 89.816406 0 49.609376-37.265625 89.660157-84.839844 91.175782-.054687.003906-.105468.003906-.160156.003906zm0 0"/><path d="m230.671875 378h-20.363281c-2.488282 0-4.597656-1.828125-4.949219-4.292969l-3.769531-26.410156c-10.757813-2.40625-20.835938-6.710937-30.042969-12.832031l-21.316406 15.984375c-1.992188 1.496093-4.777344 1.296875-6.535157-.464844l-14.402343-14.398437c-1.757813-1.757813-1.957031-4.546876-.460938-6.535157l16.222657-21.621093c-2.101563-3.308594-3.992188-6.769532-5.640626-10.324219-2.921874-6.269531-5.109374-12.878907-6.519531-19.683594l-26.601562-3.800781c-2.464844-.355469-4.292969-2.460938-4.292969-4.949219v-20.359375c0-2.488281 1.832031-4.597656 4.292969-4.949219l26.820312-3.828125c2.328125-10.6875 6.527344-20.707031 12.511719-29.875l-16.074219-21.429687c-1.492187-1.988281-1.296875-4.773438.464844-6.535157l14.398437-14.398437c1.761719-1.761719 4.546876-1.957031 6.535157-.464844l21.488281 16.121094c9.273438-6.011719 19.402344-10.195313 30.199219-12.476563l3.742187-26.183593c.351563-2.464844 2.464844-4.292969 4.949219-4.292969h20.363281c2.488282 0 4.597656 1.832031 4.949219 4.292969l3.734375 26.183593c10.9375 2.304688 21.1875 6.566407 30.558594 12.703126l20.835937-15.628907c1.988281-1.492187 4.777344-1.296875 6.535157.464844l14.398437 14.398437c1.761719 1.761719 1.957031 4.546876.464844 6.535157l-15.671875 20.890625c6.082031 9.398437 10.40625 19.953125 12.65625 30.890625l25.554687 3.652343c2.464844.351563 4.292969 2.460938 4.292969 4.949219v20.359375c0 2.488282-1.832031 4.597656-4.292969 4.949219l-25.769531 3.679687c-1.40625 6.46875-3.53125 12.777344-6.335938 18.792969-1.917968 4.128907-4.164062 8.132813-6.695312 11.941407l15.542969 20.714843c1.492187 1.988281 1.292969 4.777344-.464844 6.535157l-14.398437 14.402343c-1.761719 1.757813-4.546876 1.957031-6.535157.460938l-21.027343-15.769531c-9.367188 5.953124-19.851563 10.167968-30.695313 12.339843l-3.707031 25.96875c-.351563 2.464844-2.464844 4.292969-4.949219 4.292969zm-16.027344-10h11.6875l3.605469-25.257812c.3125-2.171876 2.007812-3.890626 4.179688-4.230469 12.015624-1.882813 23.195312-6.367188 33.230468-13.339844 1.769532-1.226563 4.125-1.183594 5.851563.109375l20.382812 15.289062 8.265625-8.269531-15.105468-20.128906c-1.316407-1.757813-1.335938-4.164063-.046876-5.941406 3.035157-4.179688 5.671876-8.664063 7.839844-13.335938 2.953125-6.335937 5.058594-13.023437 6.261719-19.886719.371094-2.132812 2.074219-3.78125 4.21875-4.089843l24.984375-3.5625v-11.6875l-24.816406-3.546875c-2.164063-.3125-3.878906-1.992188-4.230469-4.148438-1.9375-11.941406-6.667969-23.488281-13.675781-33.394531-1.253906-1.773437-1.21875-4.152344.082031-5.886719l15.207031-20.273437-8.265625-8.265625-20.230469 15.179687c-1.742187 1.304688-4.132812 1.332031-5.902343.070313-9.945313-7.09375-21.070313-11.722656-33.070313-13.753906-2.148437-.359376-3.8125-2.070313-4.117187-4.222657l-3.628907-25.425781h-11.6875l-3.632812 25.429688c-.308594 2.148437-1.972656 3.855468-4.113281 4.222656-11.871094 2.011718-22.886719 6.5625-32.742188 13.523437-1.773437 1.25-4.152343 1.214844-5.886719-.085937l-20.871093-15.65625-8.265625 8.265625 15.617187 20.824219c1.304688 1.738281 1.335938 4.125.074219 5.894531-6.9375 9.753906-11.507812 20.667969-13.589844 32.433593-.375 2.128907-2.078125 3.773438-4.21875 4.078126l-26.035156 3.71875v11.6875l25.855469 3.695312c2.160156.308594 3.871093 1.980469 4.226562 4.132812 1.191407 7.1875 3.34375 14.164063 6.398438 20.726563 1.921875 4.140625 4.207031 8.132813 6.800781 11.871094 1.226562 1.773437 1.179688 4.128906-.113281 5.851562l-15.734375 20.96875 8.265625 8.269531 20.730469-15.550781c1.753906-1.3125 4.15625-1.332031 5.933593-.050781 9.785157 7.085938 20.746094 11.773438 32.578125 13.933594 2.113282.386718 3.746094 2.082031 4.050782 4.210937zm0 0"/><path d="m221 313.871094c-30.261719 0-54.878906-24.613282-54.878906-54.871094 0-30.261719 24.617187-54.878906 54.878906-54.878906s54.878906 24.617187 54.878906 54.878906c0 30.257812-24.617187 54.871094-54.878906 54.871094zm0-99.75c-24.746094 0-44.878906 20.132812-44.878906 44.878906 0 24.742188 20.132812 44.871094 44.878906 44.871094s44.878906-20.128906 44.878906-44.871094c0-24.746094-20.132812-44.878906-44.878906-44.878906zm0 0"/><path d="m314.992188 120c-2.398438 0-4.515626-1.730469-4.925782-4.175781-3.894531-23.371094-14.457031-41.542969-31.394531-54.015625-12.742187-9.378906-24.546875-11.882813-24.664063-11.90625-2.699218-.558594-4.449218-3.191406-3.902343-5.894532.550781-2.703124 3.171875-4.453124 5.875-3.910156.554687.109375 13.742187 2.835938 28.210937 13.359375 13.300782 9.671875 30.296875 28.058594 35.742188 60.722657.453125 2.722656-1.386719 5.296874-4.109375 5.753906-.28125.046875-.558594.066406-.832031.066406zm0 0"/></g></svg>