<svg id="Capa_1" enable-background="new 0 0 512 512" height="512" viewBox="0 0 512 512" width="512" xmlns="http://www.w3.org/2000/svg"><g><g><g clip-rule="evenodd" fill-rule="evenodd"><path d="m7.5 257.846c0 42.92 30.046 78.818 70.25 87.821 0-16.5 13.5-30 30-30h296.5c16.5 0 30 13.5 30 30 38.876-.465 70.25-29.95 70.25-68.936 0-43.569-38.693-76.624-81.508-70.357 2.148-25.873-18.2-48.127-44.243-48.127-10.999 0-21.062 4.001-28.818 10.625-.738-61.995-51.213-112.025-113.382-112.025-61.176 0-114.07 55.458-113.383 114.618-52.968-15.271-115.666 21.066-115.666 86.381z" fill="#53d8f6"/><path d="m77.75 345.667c0-16.5 13.5-30 30-30h296.5c16.5 0 30 13.5 30 30 7.826-.094 15.347-1.365 22.37-3.651-1.885-27.226-24.679-48.848-52.37-48.848h-296.5c-21.441 0-39.946 12.965-48.082 31.455-18.219-16.469-29.668-40.284-29.668-66.777 0-50.763 37.874-84.016 79.617-89.147-49.537-6.169-102.117 29.334-102.117 89.147 0 42.946 30.101 78.83 70.25 87.821z" fill="#2d93f4"/><path d="m107.75 315.667c-16.5 0-30 13.5-30 30v79.488c0 16.5 13.5 30 30 30h296.5c16.5 0 30-13.5 30-30v-79.488c0-16.5-13.5-30-30-30z" fill="#fff08a"/><path d="m107.75 315.667c-16.5 0-30 13.5-30 30v79.488c0 16.5 13.5 30 30 30h22.5c-16.5 0-30-13.5-30-30v-79.488c0-16.5 13.5-30 30-30z" fill="#ffc472"/></g><g><path d="m323.73 162.896h-15v-15h15zm-15-30h-15v-15h15z" fill="#fff"/></g></g><g><path d="m131.508 358.01c10.782-3.253 20.641 4.542 20.963 4.802l5.714 4.803 9.651-11.483-5.742-4.825c-.649-.547-16.136-13.314-34.912-7.659-9.321 2.809-15.912 10.133-17.201 19.116-1.205 8.394 2.432 16.468 9.491 21.069.331.217.679.406 1.04.567.412.184 10.203 4.541 21.233 8.611 7.329 2.703 11.074 6.825 10.273 11.309-.815 4.569-6.229 9.295-13.878 9.295-7.492 0-14.718-3.036-19.326-8.122l-5.037-5.557-11.114 10.073 5.036 5.558c7.405 8.17 18.785 13.048 30.441 13.048 14.126 0 26.44-9.311 28.645-21.658 1.676-9.388-2.658-21.679-19.849-28.019-9-3.32-17.362-6.941-19.682-7.958-1.872-1.426-2.774-3.665-2.427-6.086.221-1.532 1.312-5.267 6.681-6.884z"/><path d="m246.187 428.614v-72.09h-15v8.575c-5.104-3.299-11.177-5.224-17.694-5.224-18.028 0-32.695 14.667-32.695 32.694 0 18.028 14.667 32.695 32.695 32.695 6.517 0 12.59-1.924 17.694-5.224v8.574zm-32.695-18.349c-9.757 0-17.695-7.938-17.695-17.695s7.938-17.694 17.695-17.694 17.694 7.938 17.694 17.694-7.937 17.695-17.694 17.695z"/><path d="m326.576 428.614v-72.09h-15v8.575c-5.105-3.3-11.178-5.224-17.695-5.224-18.027 0-32.694 14.667-32.694 32.694 0 18.028 14.667 32.695 32.694 32.695 6.518 0 12.591-1.924 17.695-5.224v8.574zm-32.695-18.349c-9.757 0-17.694-7.938-17.694-17.695s7.938-17.694 17.694-17.694 17.695 7.938 17.695 17.694-7.938 17.695-17.695 17.695z"/><path d="m377.256 413.614c-7.493 0-14.719-3.036-19.327-8.122l-5.037-5.557-11.114 10.073 5.036 5.558c7.405 8.17 18.786 13.048 30.442 13.048 14.126 0 26.44-9.311 28.645-21.658 1.676-9.388-2.658-21.679-19.849-28.019-9-3.32-17.362-6.941-19.682-7.958-1.872-1.426-2.775-3.665-2.428-6.086.22-1.531 1.311-5.267 6.681-6.884 10.772-3.252 20.624 4.53 20.961 4.802l5.714 4.803 9.652-11.482-5.741-4.826c-.65-.546-16.136-13.314-34.912-7.659-9.321 2.809-15.913 10.133-17.202 19.116-1.205 8.394 2.433 16.468 9.492 21.07.331.216.679.405 1.04.566.411.184 10.202 4.541 21.233 8.611 7.329 2.703 11.074 6.825 10.273 11.309-.815 4.57-6.229 9.295-13.877 9.295z"/><path d="m344.25 447.654h15v15h-15z"/><path d="m512 276.73c0-22.848-9.903-44.512-27.171-59.436-15.149-13.094-34.563-19.849-54.385-19.123-1-11.36-5.721-22.211-13.527-30.692-9.788-10.635-23.7-16.734-38.168-16.734-7.718 0-15.288 1.725-22.169 4.975-3.222-27.032-15.4-52.03-35.029-71.443-22.776-22.526-52.964-34.932-85.002-34.932-28.346 0-56.396 11.145-78.98 31.38l10.01 11.172c19.83-17.767 44.324-27.552 68.971-27.552 28.063 0 54.504 10.866 74.454 30.597 19.934 19.714 31.096 46.001 31.43 74.018l.19 16.016 12.18-10.403c6.665-5.692 15.169-8.828 23.946-8.828 10.438 0 20.073 4.224 27.132 11.893 7.081 7.693 10.504 17.678 9.637 28.114l-.781 9.409 9.342-1.367c18.352-2.685 36.917 2.727 50.942 14.85 13.967 12.072 21.978 29.599 21.978 48.086 0 16.662-6.486 32.119-18.264 43.526-10.153 9.832-23.399 15.913-37.834 17.495-3.644-16.888-18.689-29.585-36.652-29.585h-296.5c-17.384 0-32.039 11.891-36.268 27.965-14.838-4.946-28.163-14.113-38.108-26.38-11.849-14.615-18.374-33.049-18.374-51.905 0-42.703 28.17-67.946 54.532-77.332 15.838-5.638 32.594-6.561 48.456-2.67 16.961 4.161 31.971 13.773 43.408 27.8l11.625-9.479c-11.498-14.103-26.124-24.271-42.267-30.063 1.037-22.762 10.456-45.337 26.846-64.097l-11.295-9.869c-17.843 20.422-28.422 44.959-30.332 69.967-16.671-3.102-34.348-1.818-51.472 4.278-18.462 6.572-34.244 18.076-45.641 33.267-12.338 16.449-18.86 36.573-18.86 58.198 0 22.284 7.715 44.073 21.723 61.353 12.521 15.445 29.587 26.733 48.527 32.255v73.701c0 20.678 16.822 37.5 37.5 37.5h221.5v-15h-221.5c-12.406 0-22.5-10.094-22.5-22.5v-79.488c0-12.406 10.094-22.499 22.5-22.499h296.5c12.406 0 22.5 10.093 22.5 22.499v79.488c0 12.406-10.094 22.5-22.5 22.5h-30v15h30c20.678 0 37.5-16.822 37.5-37.5v-72.415c39.944-3.997 70.25-36.104 70.25-76.01z"/></g></g></svg>